<?xml version="1.0" standalone="no"?>
<!DOCTYPE svg PUBLIC "-//W3C//DTD SVG 20010904//EN"
 "http://www.w3.org/TR/2001/REC-SVG-20010904/DTD/svg10.dtd">
<svg version="1.0" xmlns="http://www.w3.org/2000/svg"
 width="520.000000pt" height="520.000000pt" viewBox="0 0 520.000000 520.000000"
 preserveAspectRatio="xMidYMid meet">
<metadata>
Created by potrace 1.14, written by Peter Selinger 2001-2017
</metadata>
<g transform="translate(0.000000,520.000000) scale(0.100000,-0.100000)"
fill="#000000" stroke="none">
<path d="M1179 3896 c-2 -2 -26 -6 -54 -9 -27 -3 -81 -13 -120 -22 -38 -9 -77
-18 -85 -20 -8 -2 -55 -20 -105 -40 -436 -177 -736 -563 -804 -1035 -10 -68
-7 -309 4 -370 20 -112 24 -127 51 -207 84 -251 204 -420 447 -630 8 -6 40
-28 73 -49 162 -104 287 -153 509 -199 17 -4 98 -8 180 -10 193 -4 325 19 508
88 341 131 634 442 750 797 27 83 55 214 59 272 1 21 4 35 7 32 5 -5 6 -11 16
-84 3 -25 8 -52 10 -60 2 -8 7 -31 10 -50 9 -52 52 -174 89 -256 30 -64 118
-210 135 -224 3 -3 23 -26 44 -52 189 -236 501 -411 812 -456 96 -14 345 -7
435 12 336 72 592 235 803 515 85 112 186 331 211 456 4 17 9 41 12 55 25 117
25 457 0 498 -2 4 -7 24 -10 45 -3 21 -11 47 -16 58 -6 10 -8 19 -6 19 3 0 -6
30 -20 68 -83 220 -198 389 -366 537 -73 64 -87 74 -147 113 -215 138 -419
201 -676 207 -227 6 -400 -30 -600 -126 -70 -34 -187 -104 -222 -134 -150
-127 -220 -202 -295 -316 -114 -171 -194 -393 -211 -581 -5 -56 -13 -55 -16 2
-3 82 -40 234 -80 335 -25 62 -100 205 -135 255 -74 107 -201 240 -296 309
-30 22 -60 44 -65 49 -6 5 -15 11 -20 13 -6 2 -39 21 -75 41 -168 95 -370 148
-591 154 -80 3 -147 3 -150 0z"/>
</g>
</svg>
